<mxfile host="app.diagrams.net" modified="2024-02-22T15:25:05.290Z" agent="Mozilla/5.0 (Windows NT 10.0; Win64; x64; rv:122.0) Gecko/20100101 Firefox/122.0" etag="C0sEDzaEWXniMF0QtC92" version="23.1.5" type="device">
  <diagram name="internal_block_diagram" id="qZzX9rMYGZgzQYbyYqGh">
    <mxGraphModel dx="1595" dy="628" grid="1" gridSize="10" guides="1" tooltips="1" connect="1" arrows="1" fold="1" page="0" pageScale="1" pageWidth="827" pageHeight="1169" math="0" shadow="0">
      <root>
        <mxCell id="uCNm4jnEXtzT7eWuSjkF-0" />
        <mxCell id="uCNm4jnEXtzT7eWuSjkF-1" parent="uCNm4jnEXtzT7eWuSjkF-0" />
        <mxCell id="uCNm4jnEXtzT7eWuSjkF-2" value="" style="rounded=1;whiteSpace=wrap;html=1;arcSize=4;strokeWidth=2;fillColor=#f5f5f5;strokeColor=#666666;fontColor=#333333;" vertex="1" parent="uCNm4jnEXtzT7eWuSjkF-1">
          <mxGeometry x="40" y="180" width="680" height="420" as="geometry" />
        </mxCell>
        <mxCell id="uCNm4jnEXtzT7eWuSjkF-3" value="DDR3" style="rounded=1;whiteSpace=wrap;html=1;arcSize=4;fontSize=24;strokeWidth=2;" vertex="1" parent="uCNm4jnEXtzT7eWuSjkF-1">
          <mxGeometry x="40" y="40" width="200" height="120" as="geometry" />
        </mxCell>
        <mxCell id="uCNm4jnEXtzT7eWuSjkF-4" value="FPGA" style="text;html=1;align=center;verticalAlign=middle;whiteSpace=wrap;rounded=0;fontSize=30;" vertex="1" parent="uCNm4jnEXtzT7eWuSjkF-1">
          <mxGeometry x="580" y="540" width="100" height="60" as="geometry" />
        </mxCell>
        <mxCell id="uCNm4jnEXtzT7eWuSjkF-5" value="Probes" style="rounded=1;whiteSpace=wrap;html=1;arcSize=4;fontSize=24;strokeWidth=2;fillColor=#d5e8d4;strokeColor=#82b366;" vertex="1" parent="uCNm4jnEXtzT7eWuSjkF-1">
          <mxGeometry x="-120" y="330" width="120" height="120" as="geometry" />
        </mxCell>
        <mxCell id="uCNm4jnEXtzT7eWuSjkF-6" value="&lt;div&gt;Rotary&lt;/div&gt;&lt;div&gt;Encoder&lt;br&gt;&lt;/div&gt;" style="rounded=1;whiteSpace=wrap;html=1;arcSize=4;fontSize=24;strokeWidth=2;fillColor=#fff2cc;strokeColor=#d6b656;" vertex="1" parent="uCNm4jnEXtzT7eWuSjkF-1">
          <mxGeometry x="-120" y="460" width="120" height="120" as="geometry" />
        </mxCell>
        <mxCell id="uCNm4jnEXtzT7eWuSjkF-7" value="RE - Controller" style="rounded=1;whiteSpace=wrap;html=1;arcSize=4;fontSize=24;strokeWidth=2;fillColor=#fff2cc;strokeColor=#d6b656;" vertex="1" parent="uCNm4jnEXtzT7eWuSjkF-1">
          <mxGeometry x="80" y="460" width="120" height="120" as="geometry" />
        </mxCell>
        <mxCell id="uCNm4jnEXtzT7eWuSjkF-8" value="XADC" style="rounded=1;whiteSpace=wrap;html=1;arcSize=4;fontSize=24;strokeWidth=2;fillColor=#d5e8d4;strokeColor=#82b366;" vertex="1" parent="uCNm4jnEXtzT7eWuSjkF-1">
          <mxGeometry x="80" y="330" width="120" height="120" as="geometry" />
        </mxCell>
        <mxCell id="uCNm4jnEXtzT7eWuSjkF-9" value="AXI Interconnect" style="rounded=1;whiteSpace=wrap;html=1;arcSize=4;fontSize=24;horizontal=0;strokeWidth=2;fillColor=#f8cecc;strokeColor=#b85450;" vertex="1" parent="uCNm4jnEXtzT7eWuSjkF-1">
          <mxGeometry x="240" y="200" width="60" height="350" as="geometry" />
        </mxCell>
        <mxCell id="uCNm4jnEXtzT7eWuSjkF-10" value="Microblaze" style="rounded=1;whiteSpace=wrap;html=1;arcSize=4;fontSize=24;strokeWidth=2;" vertex="1" parent="uCNm4jnEXtzT7eWuSjkF-1">
          <mxGeometry x="340" y="330" width="180" height="250" as="geometry" />
        </mxCell>
        <mxCell id="uCNm4jnEXtzT7eWuSjkF-11" value="" style="shape=flexArrow;endArrow=classic;startArrow=classic;html=1;rounded=0;endWidth=6.870229007633588;endSize=2.6435114503816797;startWidth=6.870229007633588;startSize=2.6435114503816797;strokeWidth=2;fillColor=#f8cecc;strokeColor=#b85450;" edge="1" parent="uCNm4jnEXtzT7eWuSjkF-1">
          <mxGeometry width="100" height="100" relative="1" as="geometry">
            <mxPoint x="200" y="519.69" as="sourcePoint" />
            <mxPoint x="240" y="519.69" as="targetPoint" />
          </mxGeometry>
        </mxCell>
        <mxCell id="uCNm4jnEXtzT7eWuSjkF-12" value="" style="shape=flexArrow;endArrow=classic;startArrow=classic;html=1;rounded=0;endWidth=6.870229007633588;endSize=2.6435114503816797;startWidth=6.870229007633588;startSize=2.6435114503816797;strokeWidth=2;fillColor=#f8cecc;strokeColor=#b85450;" edge="1" parent="uCNm4jnEXtzT7eWuSjkF-1">
          <mxGeometry width="100" height="100" relative="1" as="geometry">
            <mxPoint x="200" y="389.69" as="sourcePoint" />
            <mxPoint x="240" y="389.69" as="targetPoint" />
          </mxGeometry>
        </mxCell>
        <mxCell id="uCNm4jnEXtzT7eWuSjkF-13" value="" style="shape=flexArrow;endArrow=classic;startArrow=classic;html=1;rounded=0;endWidth=6.870229007633588;endSize=2.6435114503816797;startWidth=6.870229007633588;startSize=2.6435114503816797;strokeWidth=2;fillColor=#f8cecc;strokeColor=#b85450;" edge="1" parent="uCNm4jnEXtzT7eWuSjkF-1">
          <mxGeometry width="100" height="100" relative="1" as="geometry">
            <mxPoint x="300" y="389.69" as="sourcePoint" />
            <mxPoint x="340" y="389.69" as="targetPoint" />
          </mxGeometry>
        </mxCell>
        <mxCell id="uCNm4jnEXtzT7eWuSjkF-14" value="DDR3 Controller" style="rounded=1;whiteSpace=wrap;html=1;arcSize=4;fontSize=22;strokeWidth=2;" vertex="1" parent="uCNm4jnEXtzT7eWuSjkF-1">
          <mxGeometry x="80" y="200" width="120" height="120" as="geometry" />
        </mxCell>
        <mxCell id="uCNm4jnEXtzT7eWuSjkF-15" value="" style="shape=flexArrow;endArrow=classic;startArrow=classic;html=1;rounded=0;endWidth=6.870229007633588;endSize=2.6435114503816797;startWidth=6.870229007633588;startSize=2.6435114503816797;strokeWidth=2;fillColor=#f8cecc;strokeColor=#b85450;" edge="1" parent="uCNm4jnEXtzT7eWuSjkF-1">
          <mxGeometry width="100" height="100" relative="1" as="geometry">
            <mxPoint x="200" y="260" as="sourcePoint" />
            <mxPoint x="240" y="260" as="targetPoint" />
          </mxGeometry>
        </mxCell>
        <mxCell id="uCNm4jnEXtzT7eWuSjkF-16" value="" style="endArrow=block;html=1;rounded=0;strokeWidth=2;endFill=1;" edge="1" parent="uCNm4jnEXtzT7eWuSjkF-1">
          <mxGeometry width="50" height="50" relative="1" as="geometry">
            <mxPoint x="200" y="570" as="sourcePoint" />
            <mxPoint x="340" y="570" as="targetPoint" />
          </mxGeometry>
        </mxCell>
        <mxCell id="uCNm4jnEXtzT7eWuSjkF-17" value="" style="shape=flexArrow;endArrow=classic;startArrow=classic;html=1;rounded=0;endWidth=6.870229007633588;endSize=2.6435114503816797;startWidth=6.870229007633588;startSize=2.6435114503816797;strokeWidth=2;entryX=0.5;entryY=1;entryDx=0;entryDy=0;fillColor=#f5f5f5;strokeColor=#666666;" edge="1" parent="uCNm4jnEXtzT7eWuSjkF-1" target="uCNm4jnEXtzT7eWuSjkF-3">
          <mxGeometry width="100" height="100" relative="1" as="geometry">
            <mxPoint x="140" y="199.5" as="sourcePoint" />
            <mxPoint x="180" y="199.5" as="targetPoint" />
          </mxGeometry>
        </mxCell>
        <mxCell id="uCNm4jnEXtzT7eWuSjkF-18" value="" style="shape=flexArrow;endArrow=classic;startArrow=none;html=1;rounded=0;endWidth=6.870229007633588;endSize=2.6435114503816797;startWidth=6.870229007633588;startSize=2.6435114503816797;strokeWidth=2;fillColor=#fff2cc;strokeColor=#d6b656;startFill=0;" edge="1" parent="uCNm4jnEXtzT7eWuSjkF-1">
          <mxGeometry width="100" height="100" relative="1" as="geometry">
            <mxPoint y="520" as="sourcePoint" />
            <mxPoint x="80" y="520" as="targetPoint" />
          </mxGeometry>
        </mxCell>
        <mxCell id="uCNm4jnEXtzT7eWuSjkF-19" value="" style="shape=flexArrow;endArrow=classic;startArrow=none;html=1;rounded=0;endWidth=6.870229007633588;endSize=2.6435114503816797;startWidth=6.870229007633588;startSize=2.6435114503816797;strokeWidth=2;fillColor=#d5e8d4;strokeColor=#82b366;startFill=0;" edge="1" parent="uCNm4jnEXtzT7eWuSjkF-1">
          <mxGeometry width="100" height="100" relative="1" as="geometry">
            <mxPoint y="389.91999999999996" as="sourcePoint" />
            <mxPoint x="80" y="389.91999999999996" as="targetPoint" />
          </mxGeometry>
        </mxCell>
        <mxCell id="uCNm4jnEXtzT7eWuSjkF-20" value="Frame Buffer" style="rounded=1;whiteSpace=wrap;html=1;arcSize=4;fontSize=22;strokeWidth=2;fillColor=#dae8fc;strokeColor=#6c8ebf;" vertex="1" parent="uCNm4jnEXtzT7eWuSjkF-1">
          <mxGeometry x="340" y="200" width="180" height="120" as="geometry" />
        </mxCell>
        <mxCell id="uCNm4jnEXtzT7eWuSjkF-21" value="" style="shape=flexArrow;endArrow=classic;startArrow=classic;html=1;rounded=0;endWidth=6.870229007633588;endSize=2.6435114503816797;startWidth=6.870229007633588;startSize=2.6435114503816797;strokeWidth=2;fillColor=#f8cecc;strokeColor=#b85450;" edge="1" parent="uCNm4jnEXtzT7eWuSjkF-1">
          <mxGeometry width="100" height="100" relative="1" as="geometry">
            <mxPoint x="300" y="259.76" as="sourcePoint" />
            <mxPoint x="340" y="259.76" as="targetPoint" />
          </mxGeometry>
        </mxCell>
        <mxCell id="uCNm4jnEXtzT7eWuSjkF-22" value="HDMI" style="rounded=1;whiteSpace=wrap;html=1;arcSize=4;fontSize=22;strokeWidth=2;fillColor=#dae8fc;strokeColor=#6c8ebf;" vertex="1" parent="uCNm4jnEXtzT7eWuSjkF-1">
          <mxGeometry x="560" y="200" width="120" height="120" as="geometry" />
        </mxCell>
        <mxCell id="uCNm4jnEXtzT7eWuSjkF-23" value="" style="shape=flexArrow;endArrow=none;startArrow=block;html=1;rounded=0;endWidth=6.870229007633588;endSize=2.6435114503816797;startWidth=6.870229007633588;startSize=2.6435114503816797;strokeWidth=2;entryX=0.5;entryY=1;entryDx=0;entryDy=0;fillColor=#dae8fc;strokeColor=#6c8ebf;exitX=0;exitY=0.5;exitDx=0;exitDy=0;startFill=0;endFill=0;" edge="1" parent="uCNm4jnEXtzT7eWuSjkF-1" source="uCNm4jnEXtzT7eWuSjkF-22">
          <mxGeometry width="100" height="100" relative="1" as="geometry">
            <mxPoint x="520" y="299.5" as="sourcePoint" />
            <mxPoint x="520" y="260" as="targetPoint" />
          </mxGeometry>
        </mxCell>
        <mxCell id="uCNm4jnEXtzT7eWuSjkF-24" value="Display" style="rounded=1;whiteSpace=wrap;html=1;arcSize=4;fontSize=22;strokeWidth=2;fillColor=#dae8fc;strokeColor=#6c8ebf;" vertex="1" parent="uCNm4jnEXtzT7eWuSjkF-1">
          <mxGeometry x="760" y="200" width="120" height="120" as="geometry" />
        </mxCell>
        <mxCell id="uCNm4jnEXtzT7eWuSjkF-25" value="" style="shape=flexArrow;endArrow=none;startArrow=classic;html=1;rounded=0;endWidth=6.870229007633588;endSize=2.6435114503816797;startWidth=6.870229007633588;startSize=2.6435114503816797;strokeWidth=2;entryX=0.5;entryY=1;entryDx=0;entryDy=0;fillColor=#dae8fc;strokeColor=#6c8ebf;exitX=0;exitY=0.5;exitDx=0;exitDy=0;endFill=0;" edge="1" parent="uCNm4jnEXtzT7eWuSjkF-1" source="uCNm4jnEXtzT7eWuSjkF-24">
          <mxGeometry width="100" height="100" relative="1" as="geometry">
            <mxPoint x="720" y="259.66" as="sourcePoint" />
            <mxPoint x="680" y="259.66" as="targetPoint" />
          </mxGeometry>
        </mxCell>
      </root>
    </mxGraphModel>
  </diagram>
</mxfile>
